<?xml version="1.0" encoding="UTF-8" standalone="no"?>
<svg width="232px" height="208px" viewBox="0 0 232 208" version="1.1" xmlns="http://www.w3.org/2000/svg" xmlns:xlink="http://www.w3.org/1999/xlink">
    <!-- Generator: Sketch 3.8.3 (29802) - http://www.bohemiancoding.com/sketch -->
    <title>Artboard 1 Copy</title>
    <desc>Created with Sketch.</desc>
    <defs></defs>
    <g id="Page-1" stroke="none" stroke-width="1" fill="none" fill-rule="evenodd">
        <g id="Artboard-1-Copy" stroke="#FFFFFF">
            <path d="M105.491303,32.7507389 C70.4266509,36.0902296 43.8610513,75.0986244 89.5552349,94.5030038 C127.516761,110.623652 194.63145,52.7390598 138.691446,29.4307247 C131.087982,26.2626149 122.312709,27.6600504 114.12334,26.7747133 L105.491303,32.7507389 Z" id="Path-1" stroke-width="4"></path>
            <path d="M97.1236801,79.4855449 C105.191805,79.1422204 113.323467,77.3882931 121.328055,78.4555715 C123.55662,78.7527134 117.400103,89.540896 111.028321,90.8152523 C107.657542,91.4894081 103.869845,92.7263536 100.728587,91.330239 C98.4124745,90.3008557 98.3253157,86.8670209 97.1236801,84.6354119 L97.1236801,79.4855449 Z" id="Path-24" stroke-width="3"></path>
            <path d="M73.4121634,131.38856 C92.6383337,129.328613 111.777429,126.150829 131.090674,125.20872 C140.032848,124.772516 150.612128,122.026883 157.869983,127.268667 C162.748634,130.792137 159.114747,139.279056 158.899956,145.293201 C158.426756,158.542814 156.840009,171.729185 155.810036,184.947177" id="Path-21" stroke-width="3"></path>
            <path d="M71.3522166,131.903547 C70.150581,146.151512 68.5788252,160.373094 67.7473097,174.647443 C67.5474039,178.079159 65.0521325,183.717753 68.2622964,184.947177 C89.4560246,193.063924 130.680194,168.895168 157.869983,184.43219" id="Path-22" stroke-width="3"></path>
            <path d="M102.251419,99.4593846 C95.5336645,118.940872 97.2894984,109.131492 96.586565,128.813627" id="Path-23" stroke-width="3"></path>
            <path d="M116.671046,99.9743713 C118.675141,104.650592 120.629518,126.511547 119.760967,125.20872" id="Path-24" stroke-width="3"></path>
            <path d="M100.191472,99.4593846 C95.5565916,103.922603 91.7080163,109.383035 86.286831,112.849039 C78.3420052,117.928518 51.1428115,123.703821 70.3222432,140.143334" id="Path-25" stroke-width="3"></path>
            <path d="M120.275953,99.4593846 C127.536831,110.071436 138.584466,111.910289 137.785501,124.693733" id="Path-26" stroke-width="3"></path>
            <path d="M142.456592,104.59517 L149.666405,116.439864" id="Path-28"></path>
            <path d="M139.881658,108.715064 L144.001552,115.409891" id="Path-29"></path>
            <path d="M139.366671,137.590529 C120.440667,142.752166 108.67786,154.919742 94.0478415,167.459758" id="Path-30" stroke-width="2"></path>
            <path d="M144.516538,149.435223 C124.348966,160.527388 137.322514,152.711069 107.437496,175.699545" id="Path-31" stroke-width="2"></path>
            <path d="M103.856729,101.495191 C112.144428,111.164174 108.358966,111.38917 115.186436,100.465218" id="Path-29" stroke-width="2"></path>
            <path d="M109.521583,109.244132 C102.773931,117.678696 106.48265,126.044195 109.521582,127.230445 C111.476781,127.993658 112.773151,129.441606 112.096516,113.879012 L109.521583,109.244132 Z" id="Path-30" stroke-width="2" fill="#FFFFFF"></path>
            <path d="M86.8018177,55.4400915 L102.251419,54.4101181" id="Path-29" stroke-width="3"></path>
            <path d="M121.820913,53.8951314 L141.390408,52.3501713" id="Path-30" stroke-width="3"></path>
            <path d="M93.5328548,60.5537486 C92.3278196,68.988995 91.1562519,65.7436181 94.5628282,70.8534826" id="Path-29" stroke-width="3"></path>
            <path d="M131.126884,60.5537486 C130.57311,69.3730345 128.332712,67.2358574 132.156858,69.7852875" id="Path-30" stroke-width="3"></path>
        </g>
    </g>
</svg>