<?xml version="1.0" encoding="UTF-8" standalone="no"?>
<svg width="390px" height="208px" viewBox="0 0 390 208" version="1.1" xmlns="http://www.w3.org/2000/svg" xmlns:xlink="http://www.w3.org/1999/xlink">
    <!-- Generator: Sketch 3.8.3 (29802) - http://www.bohemiancoding.com/sketch -->
    <title>Artboard 1</title>
    <desc>Created with Sketch.</desc>
    <defs></defs>
    <g id="Page-1" stroke="none" stroke-width="1" fill="none" fill-rule="evenodd">
        <g id="Artboard-1">
            <path d="M105.491303,32.7507389 C70.4266509,36.0902296 43.8610513,75.0986244 89.5552349,94.5030038 C127.516761,110.623652 194.63145,52.7390598 138.691446,29.4307247 C131.087982,26.2626149 122.312709,27.6600504 114.12334,26.7747133 L105.491303,32.7507389 Z" id="Path-1" stroke="#FFFFFF" stroke-width="4"></path>
            <path d="M82.2512036,44.7027902 C91.8376053,50.4546312 86.3972067,49.3518807 98.8512748,46.0307959" id="Path-2" stroke="#FFFFFF" stroke-width="4"></path>
            <path d="M106.155306,42.7107816 C107.122307,49.4797896 121.44474,44.5298808 129.395406,45.366793" id="Path-3" stroke="#FFFFFF" stroke-width="4"></path>
            <path d="M98.8979625,100.510155 C97.3573924,102.435867 74.9561752,133.396504 66.361823,135.702305 C41.6656238,142.328115 50.4069614,95.13275 19.8816236,123.750254" id="Path-7" stroke="#FFFFFF" stroke-width="4"></path>
            <path d="M118.818048,100.510155 C125.458076,108.256854 131.087533,116.999724 138.738133,123.750254 C171.351275,152.526556 173.050623,83.1911204 214.434458,107.150183" id="Path-8" stroke="#FFFFFF" stroke-width="4"></path>
            <path d="M171.938276,89.886109 C168.839596,91.6567832 165.740916,93.4274575 162.642236,95.1981317" id="Path-9" stroke="#FFFFFF" stroke-width="2"></path>
            <path d="M187.210341,94.5341289 C173.668752,97.4513632 180.028555,94.143477 169.331546,106.48618" id="Path-10" stroke="#FFFFFF" stroke-width="2"></path>
            <path d="M122.187344,105.822177 C150.665792,156.983459 124.583496,152.107934 141.394145,194.134556" id="Path-11" stroke="#FFFFFF" stroke-width="4"></path>
            <path d="M94.2499426,107.150183 C92.5085265,135.01284 94.5704194,164.628686 87.6099141,190.150539 C87.1859431,191.705099 88.4952512,193.249219 88.9379198,194.798559" id="Path-12" stroke="#FFFFFF" stroke-width="4"></path>
            <path d="M88.3809351,57.0587527 C88.7645897,70.4866638 86.0561996,66.1031155 91.4787126,72.2034426" id="Path-29" stroke="#FFFFFF" stroke-width="3"></path>
            <path d="M117.293525,56.3703577 C116.127396,68.4203521 114.782281,63.787447 117.98192,70.8266526" id="Path-30" stroke="#FFFFFF" stroke-width="3"></path>
            <path d="M97.7388046,87.4247701 C107.4209,74.8380462 102.364651,75.4648304 112.883494,89.4899551" id="Path-30" stroke="#FFFFFF" stroke-width="3"></path>
            <g id="Group" transform="translate(160.000000, 45.000000)" stroke="#FFFFFF">
                <path d="M77.6656601,6.07167052 C46.1790335,9.07523613 22.3242093,44.1597095 63.3557212,61.6121691 C97.4436219,76.1112134 157.709873,24.0493319 107.478033,3.08562221 C100.650433,0.236198007 92.7705956,1.49306311 85.416877,0.696783565 L77.6656601,6.07167052 Z" id="Path-1-Copy" stroke-width="3.6"></path>
                <path d="M56.7969992,16.8214444 C65.4051966,21.9946979 60.5199407,21.002875 71.7031855,18.0158638" id="Path-2-Copy" stroke-width="3.6"></path>
                <path d="M78.2619075,15.0298154 C79.1302351,21.1179172 91.991195,16.6659283 99.1305685,17.4186541" id="Path-3-Copy" stroke-width="3.6"></path>
                <path d="M71.7451092,67.0150502 C70.3617401,68.7470521 50.2463614,96.593305 42.5289839,98.6671623 C20.3528051,104.62647 28.2021694,62.1785681 0.791662045,87.9173884" id="Path-7-Copy" stroke-width="3.6"></path>
                <path d="M89.6325328,67.0150502 C95.5950074,73.9824963 100.65003,81.845906 107.519956,87.9173884 C136.805227,113.799033 138.331171,51.4381674 175.492166,72.9871468" id="Path-8-Copy" stroke-width="3.6"></path>
                <path d="M137.332329,57.4596956 C134.549841,59.0522547 131.767353,60.6448138 128.984865,62.2373729" id="Path-9-Copy" stroke-width="1.8"></path>
                <path d="M151.046021,61.6401633 C138.886227,64.263948 144.59707,61.2888077 134.991592,72.3899372" id="Path-10-Copy" stroke-width="1.8"></path>
                <path d="M92.6580229,71.7927275 C118.230507,117.807608 94.8096697,113.42252 109.904946,151.221613" id="Path-11-Copy" stroke-width="3.6"></path>
                <path d="M67.571377,72.9871468 C66.0076565,98.0470514 67.8591522,124.683789 61.6089025,147.638355 C61.2281938,149.036539 62.4038991,150.425333 62.8013974,151.818822" id="Path-12-Copy" stroke-width="3.6"></path>
                <path d="M62.3012479,27.9344995 C62.645754,40.0116739 60.2137303,36.0690743 65.0829256,41.555759" id="Path-29-Copy" stroke-width="2.7"></path>
                <path d="M88.2635733,27.3153513 C87.2164375,38.1532161 86.0085787,33.9863428 88.8817239,40.3174627" id="Path-30-Copy-2" stroke-width="2.7"></path>
                <path d="M70.7042327,55.2459471 C79.3983591,43.9253433 74.8580539,44.4890782 84.303546,57.1033916" id="Path-30-Copy" stroke-width="2.7"></path>
            </g>
            <path d="M245.552133,50.9974024 C255.936989,46.6248313 260.20409,42.1163494 270.985779,45.4337922 C288.095202,50.69823 297.216739,70.0462691 295.624625,86.7634678 C294.820291,95.2089736 293.329924,88.1288121 290.061014,96.3010852 C286.841412,104.350091 292.774934,102.631819 285.292206,105.838703 C282.296218,107.122698 281.453444,101.231599 279.728595,101.069894 C272.562784,100.398099 261.037123,110.097898 258.268956,103.454298 C254.111084,93.4754043 265.375737,82.990667 267.806574,72.4570416 C274.498562,43.4584275 247.532471,56.6553638 239.988523,50.9974024" id="Path-43" fill="#FFFFFF"></path>
            <path d="M234.369028,50.131193 C206.002225,41.4029458 187.474796,60.4566103 191.44975,89.8712657 C192.022937,94.1128489 195.02012,97.6843561 196.218558,101.793287 C196.8903,104.096402 195.837185,106.855523 197.01336,108.946501 C203.125254,119.81209 214.190401,113.348408 216.088595,103.38289 C221.201796,76.5385862 210.374571,84.83093 223.241808,69.2064279 C240.741761,47.9564848 239.137837,60.2032479 239.137837,44.5675828" id="Path-44" fill="#FFFFFF"></path>
        </g>
    </g>
</svg>