<?xml version="1.0" encoding="UTF-8" standalone="no"?>
<svg width="76px" height="69px" viewBox="0 0 76 69" version="1.1" xmlns="http://www.w3.org/2000/svg" xmlns:xlink="http://www.w3.org/1999/xlink">
    <!-- Generator: Sketch 3.8.3 (29802) - http://www.bohemiancoding.com/sketch -->
    <title>Fill 8</title>
    <desc>Created with Sketch.</desc>
    <defs></defs>
    <g id="Page-1" stroke="none" stroke-width="1" fill="none" fill-rule="evenodd">
        <g id="Artboard-11" transform="translate(-76.000000, -69.000000)" fill="#0A0B09">
            <g id="30øÓ∫⁄…´Õıπ⁄Õº±Í-∏¡øÀÿ≤ƒ" transform="translate(59.000000, -19.000000)">
                <path d="M74.116,144.804 L79.118,144.804 C77.65,143.69 77.247,141.824 77.157,140.529 L76.051,140.529 C75.974,141.825 75.585,143.687 74.116,144.804 L74.116,144.804 Z M63.414,144.804 L68.418,144.804 C66.949,143.69 66.545,141.825 66.455,140.529 L65.349,140.529 C65.272,141.825 64.882,143.687 63.414,144.804 L63.414,144.804 Z M52.571,144.804 L57.575,144.804 C56.106,143.69 55.703,141.825 55.613,140.529 L54.507,140.529 C54.429,141.825 54.04,143.687 52.571,144.804 L52.571,144.804 Z M42.167,144.804 L47.153,144.804 C45.684,143.69 45.28,141.825 45.19,140.529 L44.093,140.529 C44.023,141.825 43.642,143.687 42.167,144.804 L42.167,144.804 Z M31.553,144.804 L36.556,144.804 C35.087,143.69 34.683,141.825 34.593,140.529 L33.487,140.529 C33.409,141.825 33.021,143.686 31.553,144.804 L31.553,144.804 Z M37.146,140.054 C37.171,141.081 37.485,142.955 39.41,143.159 C41.368,142.917 41.558,140.87 41.537,139.902 C41.069,140.651 40.238,141.15 39.29,141.15 C38.408,141.15 37.627,140.717 37.146,140.054 L37.146,140.054 Z M51.957,139.947 C51.485,140.67 50.669,141.15 49.739,141.15 C48.947,141.15 48.236,140.801 47.751,140.249 C47.812,141.284 48.187,142.91 49.915,143.148 C51.751,142.863 51.966,140.917 51.957,139.947 L51.957,139.947 Z M49.739,135.857 C50.262,135.857 50.75,136.009 51.161,136.271 C51.448,135.136 51.886,134.127 52.513,133.278 C50.196,124.961 48.959,118.237 49.141,113.602 C38.427,114.367 39.094,126.272 46.161,133.562 L45.804,137.947 L47.152,137.947 C47.408,136.752 48.469,135.857 49.739,135.857 L49.739,135.857 Z M58.164,139.818 C58.15,140.779 58.354,143.031 60.566,143.17 C62.719,142.983 62.832,140.655 62.794,139.753 C62.349,140.584 61.471,141.15 60.461,141.15 C59.479,141.15 58.621,140.614 58.164,139.818 L58.164,139.818 Z M69.007,140.008 C69.024,141.034 69.324,142.989 71.33,143.165 C73.396,142.94 73.531,140.703 73.498,139.787 C73.047,140.599 72.179,141.15 71.184,141.15 C70.281,141.15 69.485,140.698 69.007,140.008 L69.007,140.008 Z M27.925,133.995 C27.151,133.995 26.525,134.622 26.525,135.394 C26.525,136.168 27.151,136.794 27.925,136.794 C28.698,136.794 29.325,136.168 29.325,135.394 C29.325,134.622 28.698,133.995 27.925,133.995 L27.925,133.995 Z M25.295,131.775 C24.522,131.775 23.896,132.402 23.896,133.175 C23.896,133.949 24.522,134.575 25.295,134.575 C26.069,134.575 26.695,133.949 26.695,133.175 C26.695,132.402 26.069,131.775 25.295,131.775 L25.295,131.775 Z M22.974,129.043 C22.2,129.043 21.573,129.67 21.573,130.443 C21.573,131.216 22.2,131.843 22.974,131.843 C23.747,131.843 24.374,131.216 24.374,130.443 C24.374,129.67 23.747,129.043 22.974,129.043 L22.974,129.043 Z M21.129,125.833 C20.356,125.833 19.73,126.46 19.73,127.234 C19.73,128.007 20.356,128.633 21.129,128.633 C21.903,128.633 22.529,128.007 22.529,127.234 C22.529,126.46 21.903,125.833 21.129,125.833 L21.129,125.833 Z M19.456,121.77 C18.683,121.77 18.056,122.397 18.056,123.17 C18.056,123.944 18.683,124.57 19.456,124.57 C20.229,124.57 20.856,123.944 20.856,123.17 C20.856,122.397 20.229,121.77 19.456,121.77 L19.456,121.77 Z M19.012,116.887 C18.239,116.887 17.612,117.513 17.612,118.287 C17.612,119.06 18.239,119.687 19.012,119.687 C19.786,119.687 20.413,119.06 20.413,118.287 C20.413,117.513 19.786,116.887 19.012,116.887 L19.012,116.887 Z M19.986,111.799 C19.213,111.799 18.586,112.426 18.586,113.2 C18.586,113.973 19.213,114.599 19.986,114.599 C20.759,114.599 21.386,113.973 21.386,113.2 C21.386,112.426 20.759,111.799 19.986,111.799 L19.986,111.799 Z M23.708,107.429 C22.935,107.429 22.308,108.055 22.308,108.829 C22.308,109.602 22.935,110.229 23.708,110.229 C24.481,110.229 25.108,109.602 25.108,108.829 C25.108,108.055 24.481,107.429 23.708,107.429 L23.708,107.429 Z M29.121,105.073 C28.347,105.073 27.72,105.7 27.72,106.473 C27.72,107.247 28.347,107.873 29.121,107.873 C29.894,107.873 30.521,107.247 30.521,106.473 C30.521,105.7 29.894,105.073 29.121,105.073 L29.121,105.073 Z M34.618,104.39 C33.845,104.39 33.218,105.016 33.218,105.79 C33.218,106.563 33.845,107.19 34.618,107.19 C35.391,107.19 36.018,106.563 36.018,105.79 C36.018,105.016 35.391,104.39 34.618,104.39 L34.618,104.39 Z M39.979,104.594 C39.206,104.594 38.579,105.221 38.579,105.995 C38.579,106.768 39.206,107.394 39.979,107.394 C40.752,107.394 41.379,106.768 41.379,105.995 C41.379,105.221 40.752,104.594 39.979,104.594 L39.979,104.594 Z M60.757,113.567 C60.946,118.202 59.709,124.94 57.386,133.278 C58.046,134.173 58.497,135.247 58.783,136.458 C59.24,136.083 59.825,135.857 60.461,135.857 C61.732,135.857 62.793,136.752 63.049,137.947 L64.824,137.947 L64.466,133.562 C71.691,126.109 72.23,113.833 60.757,113.567 L60.757,113.567 Z M82.703,133.995 C81.93,133.995 81.303,134.622 81.303,135.394 C81.303,136.168 81.93,136.794 82.703,136.794 C83.476,136.794 84.103,136.168 84.103,135.394 C84.103,134.622 83.476,133.995 82.703,133.995 L82.703,133.995 Z M85.332,131.775 C84.559,131.775 83.932,132.402 83.932,133.175 C83.932,133.949 84.559,134.575 85.332,134.575 C86.105,134.575 86.732,133.949 86.732,133.175 C86.732,132.402 86.105,131.775 85.332,131.775 L85.332,131.775 Z M87.654,129.043 C86.881,129.043 86.254,129.67 86.254,130.443 C86.254,131.216 86.881,131.843 87.654,131.843 C88.428,131.843 89.055,131.216 89.055,130.443 C89.055,129.67 88.428,129.043 87.654,129.043 L87.654,129.043 Z M89.499,125.833 C88.725,125.833 88.099,126.46 88.099,127.234 C88.099,128.007 88.725,128.633 89.499,128.633 C90.271,128.633 90.898,128.007 90.898,127.234 C90.898,126.46 90.271,125.833 89.499,125.833 L89.499,125.833 Z M91.171,121.77 C90.398,121.77 89.772,122.397 89.772,123.17 C89.772,123.944 90.398,124.57 91.171,124.57 C91.945,124.57 92.571,123.944 92.571,123.17 C92.571,122.397 91.945,121.77 91.171,121.77 L91.171,121.77 Z M91.615,116.887 C90.842,116.887 90.215,117.513 90.215,118.287 C90.215,119.06 90.842,119.687 91.615,119.687 C92.389,119.687 93.016,119.06 93.016,118.287 C93.016,117.513 92.389,116.887 91.615,116.887 L91.615,116.887 Z M90.642,111.799 C89.869,111.799 89.242,112.426 89.242,113.2 C89.242,113.973 89.869,114.599 90.642,114.599 C91.415,114.599 92.042,113.973 92.042,113.2 C92.042,112.426 91.415,111.799 90.642,111.799 L90.642,111.799 Z M86.92,107.429 C86.146,107.429 85.52,108.055 85.52,108.829 C85.52,109.602 86.146,110.229 86.92,110.229 C87.693,110.229 88.32,109.602 88.32,108.829 C88.32,108.055 87.693,107.429 86.92,107.429 L86.92,107.429 Z M81.507,105.073 C80.734,105.073 80.107,105.7 80.107,106.473 C80.107,107.247 80.734,107.873 81.507,107.873 C82.281,107.873 82.907,107.247 82.907,106.473 C82.907,105.7 82.281,105.073 81.507,105.073 L81.507,105.073 Z M76.01,104.39 C75.236,104.39 74.61,105.016 74.61,105.79 C74.61,106.563 75.236,107.19 76.01,107.19 C76.783,107.19 77.41,106.563 77.41,105.79 C77.41,105.016 76.783,104.39 76.01,104.39 L76.01,104.39 Z M70.648,104.594 C69.876,104.594 69.249,105.221 69.249,105.995 C69.249,106.768 69.876,107.394 70.648,107.394 C71.422,107.394 72.049,106.768 72.049,105.995 C72.049,105.221 71.422,104.594 70.648,104.594 L70.648,104.594 Z M28.017,144.804 L28.702,144.804 L28.613,143.177 C31.386,143.018 30.907,139.41 30.905,139.399 L30.721,137.947 L30.956,134.902 C15.853,125.052 17.215,105.087 38.634,108.082 C35.858,109.659 34.228,111.732 33.444,114.069 C20.916,113.931 24.035,129.301 33.768,133.002 L33.393,137.947 L36.703,137.947 C36.959,136.752 38.02,135.857 39.29,135.857 C40.561,135.857 41.622,136.752 41.877,137.947 L43.221,137.947 L43.416,135.416 C42.987,134.922 42.557,134.398 42.129,133.85 C41.817,134.221 41.32,134.419 40.809,134.327 C40.048,134.19 39.542,133.461 39.68,132.701 C39.768,132.208 40.104,131.824 40.535,131.65 C40.385,131.427 40.237,131.202 40.09,130.973 C39.809,131.486 39.222,131.786 38.614,131.677 C37.854,131.54 37.348,130.812 37.485,130.051 C37.605,129.38 38.186,128.908 38.842,128.899 C38.653,128.56 38.469,128.216 38.29,127.871 C38.009,128.384 37.422,128.686 36.814,128.577 C36.052,128.439 35.547,127.711 35.684,126.951 C35.821,126.19 36.549,125.684 37.31,125.821 L37.321,125.824 C37.155,125.436 36.998,125.047 36.85,124.657 C36.536,124.999 36.059,125.179 35.567,125.091 C34.806,124.954 34.3,124.226 34.437,123.465 C34.575,122.704 35.303,122.198 36.064,122.335 L36.096,122.341 C35.936,121.747 35.802,121.152 35.698,120.559 C35.403,120.769 35.026,120.865 34.641,120.795 C33.879,120.659 33.374,119.93 33.511,119.169 C33.648,118.408 34.376,117.903 35.137,118.04 C35.247,118.059 35.353,118.092 35.451,118.135 C35.439,117.642 35.454,117.154 35.495,116.672 C35.351,116.693 35.201,116.691 35.05,116.664 C34.29,116.527 33.784,115.799 33.921,115.038 C34.058,114.277 34.786,113.771 35.547,113.908 C35.719,113.939 35.877,113.999 36.019,114.084 C36.892,111.465 38.827,109.175 42.246,107.543 C44.132,106.644 46.434,106.139 49.191,106.155 C49.624,104.061 51.145,102.366 53.137,101.687 L53.305,100.915 L51.489,100.915 L51.489,99.2 L52.761,99.2 L53.248,95.941 L50.859,96.365 L50.859,92.028 L53.251,92.52 L52.687,88.7 L57.023,88.7 L56.538,92.498 L58.851,92.028 L58.851,96.365 L56.542,95.958 L56.96,99.2 L58.296,99.2 L58.296,100.915 L56.431,100.915 L56.569,101.553 C58.781,102.119 60.502,103.911 60.964,106.163 C63.932,106.083 66.39,106.592 68.382,107.543 C71.8,109.175 73.736,111.465 74.609,114.084 C74.751,113.999 74.909,113.939 75.081,113.908 C75.842,113.771 76.57,114.277 76.707,115.038 C76.844,115.799 76.338,116.527 75.577,116.664 C75.426,116.691 75.277,116.693 75.133,116.672 C75.174,117.154 75.189,117.642 75.177,118.135 C75.275,118.092 75.38,118.059 75.491,118.04 C76.252,117.903 76.98,118.408 77.117,119.169 C77.254,119.93 76.748,120.659 75.987,120.795 C75.602,120.865 75.226,120.769 74.929,120.559 C74.826,121.151 74.692,121.747 74.532,122.341 L74.565,122.335 C75.326,122.198 76.053,122.704 76.19,123.465 C76.327,124.226 75.821,124.954 75.061,125.091 C74.569,125.179 74.092,125 73.778,124.657 C73.63,125.047 73.473,125.436 73.307,125.824 L73.318,125.821 C74.08,125.684 74.807,126.19 74.944,126.951 C75.082,127.711 74.575,128.439 73.815,128.577 C73.206,128.686 72.618,128.384 72.337,127.871 C72.159,128.216 71.975,128.56 71.786,128.899 C72.442,128.908 73.022,129.38 73.143,130.05 C73.28,130.812 72.774,131.54 72.014,131.677 C71.406,131.786 70.819,131.486 70.538,130.973 C70.391,131.202 70.243,131.427 70.092,131.65 C70.524,131.824 70.86,132.209 70.949,132.701 C71.085,133.462 70.58,134.19 69.818,134.327 C69.307,134.419 68.811,134.22 68.499,133.849 C68.072,134.398 67.641,134.922 67.211,135.416 L67.407,137.947 L68.596,137.947 C68.852,136.752 69.913,135.857 71.184,135.857 C72.454,135.857 73.515,136.752 73.771,137.947 L77.235,137.947 L76.86,133.002 C86.593,129.301 89.712,113.931 77.184,114.069 C76.4,111.732 74.77,109.659 71.994,108.082 C93.413,105.087 94.775,125.052 79.672,134.902 L79.907,137.947 L79.733,139.389 C79.731,139.4 79.272,143.201 82.357,143.177 L82.364,144.804 L83.198,144.804 L83.198,147.787 C83.676,147.498 84.237,147.332 84.837,147.332 C86.591,147.332 88.013,148.752 88.013,150.507 C88.013,152.26 86.591,153.682 84.837,153.682 C84.237,153.682 83.676,153.516 83.198,153.227 L83.198,156.551 L28.017,156.551 L28.017,153.45 C27.648,153.6 27.245,153.682 26.822,153.682 C25.068,153.682 23.646,152.26 23.646,150.507 C23.646,148.752 25.068,147.332 26.822,147.332 C27.245,147.332 27.648,147.414 28.017,147.564 L28.017,144.804 L28.017,144.804 Z" id="Fill-8"></path>
            </g>
        </g>
    </g>
</svg>