<?xml version="1.0" encoding="UTF-8" standalone="no"?>
<svg width="249px" height="208px" viewBox="0 0 249 208" version="1.1" xmlns="http://www.w3.org/2000/svg" xmlns:xlink="http://www.w3.org/1999/xlink">
    <!-- Generator: Sketch 3.8.3 (29802) - http://www.bohemiancoding.com/sketch -->
    <title>Artboard 1 Copy 2</title>
    <desc>Created with Sketch.</desc>
    <defs></defs>
    <g id="Page-1" stroke="none" stroke-width="1" fill="none" fill-rule="evenodd">
        <g id="Artboard-1-Copy-2">
            <path d="M77.4913033,32.7507389 C42.4266509,36.0902296 15.8610513,75.0986244 61.5552349,94.5030038 C99.5167607,110.623652 166.63145,52.7390598 110.691446,29.4307247 C103.087982,26.2626149 94.3127088,27.6600504 86.1233403,26.7747133 L77.4913033,32.7507389 Z" id="Path-1" stroke="#FFFFFF" stroke-width="4"></path>
            <path d="M69.1236801,79.4855449 C77.1918051,79.1422204 85.3234671,77.3882931 93.3280551,78.4555715 C95.5566196,78.7527134 89.4001026,89.540896 83.028321,90.8152523 C79.6575421,91.4894081 75.8698449,92.7263536 72.728587,91.330239 C70.4124745,90.3008557 70.3253157,86.8670209 69.1236801,84.6354119 L69.1236801,79.4855449 Z" id="Path-24" stroke="#FFFFFF" stroke-width="3"></path>
            <path d="M74.2514188,99.4593846 C67.5336645,118.940872 53.7099127,160.595907 53.0069793,180.278042 L54.5711283,194.355379" id="Path-23" stroke="#FFFFFF" stroke-width="3"></path>
            <path d="M88.6710464,99.9743713 C90.675141,104.650592 99.3489677,147.02154 99.3489677,165.813734 C99.3489677,184.605929 95.760386,191.339097 95.760386,191.339097" id="Path-24" stroke="#FFFFFF" stroke-width="3"></path>
            <path d="M72.191472,99.4593846 C67.5565916,103.922603 63.7080163,109.383035 58.286831,112.849039 C50.3420052,117.928518 23.1428115,123.703821 42.3222432,140.143334" id="Path-25" stroke="#FFFFFF" stroke-width="3"></path>
            <path d="M92.2759533,99.4593846 C99.5368305,110.071436 101.038279,126.109235 109.785501,124.693733 C118.532724,123.278231 115.395668,123.713039 123.270994,123.27823 C131.146321,122.843421 135.423307,123.27823 135.423307,123.27823" id="Path-26" stroke="#FFFFFF" stroke-width="3"></path>
            <path d="M114.456592,104.59517 L121.666405,116.439864" id="Path-28" stroke="#FFFFFF"></path>
            <path d="M111.881658,108.715064 L116.001552,115.409891" id="Path-29" stroke="#FFFFFF"></path>
            <path d="M75.8567289,101.495191 C84.1444282,111.164174 80.3589662,111.38917 87.1864363,100.465218" id="Path-29" stroke="#FFFFFF" stroke-width="2"></path>
            <path d="M82.6930127,111 C71.6924947,139.750706 77.7387207,168.265992 82.6930125,172.309535 C85.8805211,174.911084 87.9939584,179.84667 86.8908589,126.798811 L82.6930127,111 Z" id="Path-30" stroke="#FFFFFF" stroke-width="2" fill="#FFFFFF"></path>
            <path d="M58.8018177,55.4400915 L74.2514188,54.4101181" id="Path-29" stroke="#FFFFFF" stroke-width="3"></path>
            <path d="M93.8209135,53.8951314 L113.390408,52.3501713" id="Path-30" stroke="#FFFFFF" stroke-width="3"></path>
            <path d="M65.5328548,60.5537486 C64.3278196,68.988995 63.1562519,65.7436181 66.5628282,70.8534826" id="Path-29" stroke="#FFFFFF" stroke-width="3"></path>
            <path d="M103.126884,60.5537486 C102.57311,69.3730345 100.332712,67.2358574 104.156858,69.7852875" id="Path-30" stroke="#FFFFFF" stroke-width="3"></path>
            <path d="M161.913809,87.6496332 C161.502942,104.906058 152.050086,128.00925 175.220696,128.401972 C188.260274,128.622982 204.8939,135.762061 214.309674,126.738612 C223.118745,118.296585 214.864128,102.342653 215.141354,90.1446744" id="Path-59" stroke="#FFFFFF" stroke-width="3"></path>
            <path d="M162.687012,89.312994 C166.426065,70.617729 207.898831,71.6181804 217.577918,90.9763548" id="Path-60" stroke="#FFFFFF" stroke-width="3"></path>
            <path d="M173.510733,127.298183 C173.991801,121.851711 170.290271,113.812833 174.953938,110.958766 C182.134687,106.564297 199.103977,102.61304 200.210037,110.958766 L203.577517,112.88304 C204.368191,118.849039 203.096448,124.909753 202.855914,130.92311" id="Path-61" stroke="#FFFFFF" stroke-width="3"></path>
            <path d="M174.489782,91.9396456 C156.725438,97.8610935 192.847014,112.750983 179.541002,90.9775085 L174.489782,91.9396456 Z" id="Path-63" stroke="#FFFFFF" stroke-width="3"></path>
            <path d="M199.505346,92.1801798 C192.819805,95.1515314 196.545535,102.997423 202.872826,104.447428 C209.825408,106.040728 210.973643,95.388112 204.7971,93.6233855 L199.505346,92.1801798 Z" id="Path-64" stroke="#FFFFFF" stroke-width="3"></path>
            <path d="M159.817192,168.870193 C158.98432,161.996464 157.968743,159.355359 161.741466,151.854699 C164.265508,146.836577 167.447275,142.093171 171.362837,138.525894 C203.513881,109.23466 242.982207,173.389868 202.391758,182.482589 C198.524854,183.348819 194.539004,183.503861 190.605578,183.333363 C168.869782,182.391207 174.364414,183.826641 159.576657,175.109208 L159.817192,168.870193 Z" id="Path-65" stroke="#FFFFFF" stroke-width="3"></path>
            <path d="M163.174336,153.756953 C148.471998,156.602567 145.259211,146.900064 144.172129,133.31154" id="Path-66" stroke="#FFFFFF" stroke-width="3"></path>
            <path d="M135.753429,121.765895 C136.257315,138.921626 146.654587,140.696355 150.42602,122.258239" id="Path-67" stroke="#FFFFFF" stroke-width="3"></path>
            <path d="M217.775616,159.541051 C231.995083,153.320034 227.09812,154.331532 230.764466,134.044418" id="Path-68" stroke="#FFFFFF" stroke-width="3"></path>
            <path d="M224.029507,122.979842 C227.752244,139.266817 235.157613,137.461844 240.145303,122.498773" id="Path-69" stroke="#FFFFFF" stroke-width="3"></path>
            <path d="M202.141768,97 L202.141768,99.5225346 L202.141768,97 Z" id="Path-70" stroke="#FFFFFF" stroke-width="3" stroke-linecap="round" stroke-linejoin="round"></path>
            <path d="M176.141768,96 L176.141768,98.5225346 L176.141768,96 Z" id="Path-70-Copy" stroke="#FFFFFF" stroke-width="3" stroke-linecap="round" stroke-linejoin="round"></path>
            <text id="APP" font-family="HelveticaNeue, Helvetica Neue" font-size="20" font-weight="normal" fill="#FFFFFF">
                <tspan x="171" y="166.377934">APP</tspan>
            </text>
        </g>
    </g>
</svg>