<?xml version="1.0" encoding="UTF-8" standalone="no"?>
<svg width="178px" height="208px" viewBox="0 0 178 208" version="1.1" xmlns="http://www.w3.org/2000/svg" xmlns:xlink="http://www.w3.org/1999/xlink">
    <!-- Generator: Sketch 3.8.3 (29802) - http://www.bohemiancoding.com/sketch -->
    <title>Artboard 1 Copy 3</title>
    <desc>Created with Sketch.</desc>
    <defs></defs>
    <g id="Page-1" stroke="none" stroke-width="1" fill="none" fill-rule="evenodd">
        <g id="Artboard-1-Copy-3" stroke="#FFFFFF">
            <path d="M77.4913033,32.7507389 C42.4266509,36.0902296 15.8610513,75.0986244 61.5552349,94.5030038 C99.5167607,110.623652 166.63145,52.7390598 110.691446,29.4307247 C103.087982,26.2626149 94.3127088,27.6600504 86.1233403,26.7747133 L77.4913033,32.7507389 Z" id="Path-1" stroke-width="4"></path>
            <path d="M74.2514188,99.4593846 C67.5336645,118.940872 53.7099127,160.595907 53.0069793,180.278042 L54.5711283,194.355379" id="Path-23" stroke-width="3"></path>
            <path d="M88.6710464,99.9743713 C90.675141,104.650592 99.3489677,147.02154 99.3489677,165.813734 C99.3489677,184.605929 95.760386,191.339097 95.760386,191.339097" id="Path-24" stroke-width="3"></path>
            <path d="M114.456592,104.59517 L121.666405,116.439864" id="Path-28"></path>
            <path d="M111.881658,108.715064 L116.001552,115.409891" id="Path-29"></path>
            <path d="M75.8567289,101.495191 C84.1444282,111.164174 80.3589662,111.38917 87.1864363,100.465218" id="Path-29" stroke-width="2"></path>
            <path d="M82.6930127,111 C71.6924947,139.750706 77.7387207,168.265992 82.6930125,172.309535 C85.8805211,174.911084 87.9939584,179.84667 86.8908589,126.798811 L82.6930127,111 Z" id="Path-30" stroke-width="2" fill="#FFFFFF"></path>
            <path d="M65.5328548,60.5537486 C64.3278196,68.988995 63.1562519,65.7436181 66.5628282,70.8534826" id="Path-29" stroke-width="3"></path>
            <path d="M103.126884,60.5537486 C102.57311,69.3730345 100.332712,67.2358574 104.156858,69.7852875" id="Path-30" stroke-width="3"></path>
            <path d="M55.1659642,52.8583044 C61.0812591,58.8333596 56.0852031,56.2940189 76.4104037,52.116352" id="Path-82" stroke-width="3"></path>
            <path d="M88.6710464,53.5629668 C97.2278146,60.0175758 90.3932293,56.8863754 116.008451,53.0033409" id="Path-83" stroke-width="3"></path>
            <path d="M67.9003371,86.1256769 C76.6945983,76.904121 81.3658519,78.3952719 82.6283269,77.8251703 C84.0634942,77.1770852 82.1029842,75.7251457 94.8503379,86.1256773" id="Path-84" stroke-width="2"></path>
            <path d="M69.2735464,101.102277 C66.4750642,102.103305 63.4265711,102.5567 60.8780998,104.105361 C27.9202576,124.13326 34.5239736,114.787942 57.1001489,146.577552 L49.0713829,147.482278" id="Path-83" stroke-width="3"></path>
            <path d="M91.9412523,100.682504 C129.815087,130.794832 131.759627,120.116824 100.336699,149.129815 L110.087091,152.182504" id="Path-84" stroke-width="3"></path>
        </g>
    </g>
</svg>