<?xml version="1.0" encoding="UTF-8" standalone="no"?>
<svg width="646px" height="208px" viewBox="0 0 646 208" version="1.1" xmlns="http://www.w3.org/2000/svg" xmlns:xlink="http://www.w3.org/1999/xlink">
    <!-- Generator: Sketch 3.8.3 (29802) - http://www.bohemiancoding.com/sketch -->
    <title>Artboard 1 Copy 4</title>
    <desc>Created with Sketch.</desc>
    <defs></defs>
    <g id="Page-1" stroke="none" stroke-width="1" fill="none" fill-rule="evenodd">
        <g id="Artboard-1-Copy-4" stroke="#000000">
            <g id="Group" transform="translate(71.000000, 38.000000)" stroke-width="3">
                <path d="M30.6085018,11.6647451 C30.6085018,3.66307564 24.1060672,8.11314844 19.4279186,9.38442984 C-4.53296155,15.8957709 15.7626496,6.35226635 9.36539371,12.7265713 C9.10186483,12.9891547 8.32042514,12.3624336 8.24733538,12.7265713 C6.45216941,21.6701992 15.2232244,19.6080864 21.6640353,20.5249012 C22.8703357,20.6966116 24.1650368,27.4463338 22.7820936,28.3232312 C19.583096,30.3516535 3.77510209,28.9939524 3.77510209,24.9810898" id="Path-97"></path>
                <path d="M35.0807351,2.70014699 C29.9716873,16.6996228 33.2258088,11.4774429 27.2543269,19.4108541" id="Path-98"></path>
                <path d="M7.12927706,20.5249012 C4.7041888,26.9686024 4.96425959,29.4018563 0.420927119,31.6653726" id="Path-99"></path>
                <path d="M52.9972457,18.6373971 C44.8207034,15.9216611 29.5852503,16.541046 31.7265602,27.2091841 C32.4958929,31.0420471 42.9340669,37.9321542 47.0476735,37.1123845 C32.6538404,34.722019 38.9061535,51.3521879 38.9061535,41.1831434" id="Path-100"></path>
                <path d="M51.85161,9.38442984 C47.0460362,18.9610962 47.3793767,14.9753594 47.3793767,20.5249012" id="Path-101"></path>
                <path d="M67.0686959,18 C62.4563931,25.1531847 59.2422877,33.0723184 59.2422877,40.252846" id="Path-102"></path>
                <path d="M65.3863682,1.12991129 C54.5922577,3.81875758 59.1459408,12.5640244 67.6224848,11.1563356 C75.7288039,9.81012945 65.5955662,0.0158641541 62.0321932,0.0158641541" id="Path-103"></path>
                <path d="M61.0609057,2 C62.178964,3.11404714 65.829325,6.0467267 64.4150806,5.34214142 L66.6511973,5.34214142 C60.4484527,2.25189574 61.0682395,6.00459219 65.5331389,7.48755251" id="Path-104"></path>
                <path d="M93.219768,22.7225333 C89.6903608,20.0849746 82.0859123,16.7964685 79.8030681,16.0382504 C78.7423848,15.6859578 76.7408536,14.9628572 76.4488931,16.0382504 C75.3696278,20.0135648 77.2559608,24.3539358 76.4488931,28.3928592 C74.9058779,36.1147894 70.6343061,39.311543 67.5044265,43.9895191 C67.0909684,44.6074813 66.7768038,46.0564996 67.5044265,46.2176134 C92.7683785,51.8116832 68.8042535,44.4212403 80.9211264,48.4457077" id="Path-105"></path>
                <path d="M75.3308348,33.9630949 C82.3332574,33.9630949 81.9605712,31.7611112 81.9605712,35.077142" id="Path-106"></path>
                <polyline id="Path-107" points="90.7465452 13.9102463 90.7465452 20.5945292 90.7465452 25.0507177 90.7465452 26.1647649 90.7465452 27.278812"></polyline>
                <path d="M83.0786296,45.1035663 C79.5935958,54.3636483 82.9086867,54.0159434 78.6063963,54.0159434" id="Path-108"></path>
                <path d="M98.7794877,28.3928592 C106.099931,31.3105314 102.362803,30.6209534 109.960071,30.6209534" id="Path-109"></path>
                <path d="M103.223815,30.225104 L95.3974063,52.47795" id="Path-110"></path>
                <path d="M89.8036144,52.215167 L98.6227942,55.3393525" id="Path-111"></path>
                <path d="M102.885849,31.7761355 L109.516885,48.7661985" id="Path-112"></path>
                <path d="M106.043485,50.0247217 C108.46434,50.9686141 110.885194,51.9125065 113.306049,52.8563989" id="Path-113"></path>
                <path d="M121.775723,24.0490189 L110.148413,51.2832449" id="Path-114"></path>
                <path d="M117,23 C119.608803,24.8291842 122.217606,26.6583683 124.826408,28.4875525" id="Path-115"></path>
                <path d="M134.935613,39.4394898 C127.043411,36.4905319 113.537353,46.704987 123.252358,52.9686141 C126.105688,54.8082628 131.140742,53.7029896 133.672558,53.5978757" id="Path-116"></path>
                <path d="M137.694721,36.8653932 C135.085918,38.6945774 135.293357,40.9857811 132.684555,42.8149652" id="Path-117"></path>
                <path d="M136.44218,50.6433496 C134.206063,52.4725338 132.102453,57.2688201 129.866336,59.0980043" id="Path-118"></path>
                <path d="M148.04005,40.5857978 C150.987177,40.9004286 153.934304,41.2150594 156.881432,41.5296902" id="Path-119"></path>
                <path d="M149.303104,41.5296902 C147.204718,44.1781097 138.130434,54.6504408 139.830195,57.8904917 C141.759129,61.5673878 147.82954,60.1977842 151.829213,61.3514304" id="Path-120"></path>
                <path d="M145.829704,51.9125065 C147.82954,52.5417681 149.829377,53.1710297 151.829213,53.8002913" id="Path-121"></path>
                <path d="M154.355322,59.7782764 C153.408031,62.085569 152.460741,64.3928615 151.51345,66.700154" id="Path-122"></path>
                <path d="M161.604318,38.3833822 C156.77567,43.5956502 158.326725,40.6895109 156.5521,46.8784137" id="Path-123"></path>
                <path d="M94.7645465,17.4601297 C92.2313125,22.508421 90.0811197,23.4642659 88.5232485,28.1211122" id="Path-124"></path>
            </g>
            <g id="Group-2" transform="translate(36.000000, 105.000000)" stroke-width="3">
                <path d="M23.3959616,3.02863035 C25.236785,5.43053314 46.0756497,5.33295891 48.6521605,4.80456523 C49.4616427,4.63855572 49.5501804,3.17694495 49.2534985,2.40857403 C48.9440044,1.60702089 48.0109662,0.911079537 47.1488153,0.911079537 C40.2152949,0.911079537 34.2494086,-0.570036059 27.9353594,0.91107953 C21.6213103,2.39219512 23.3959616,3.02863035 23.3959616,3.02863035 Z" id="Path-125"></path>
                <path d="M27.304659,5.10406412 C27.6218003,29.4289027 27.3631067,37.6502203 14.0752215,59.013866 C7.33246394,69.854559 3.83709657,68.0498927 0.244445937,79.9787889 C-0.121670764,81.1944284 2.84763987,82.3927654 3.55180531,82.3747801 C10.7766148,82.1902495 20.0789191,85.5545673 27.3046583,85.6985196 C34.2448842,85.836784 53.0830437,83.8709936 56.5259294,83.5727774 C60.1425138,83.2595157 64.1807424,83.6362524 67.2936406,81.7757823 L69.6989929,81.1767845 C70.0833306,80.9470793 70.2201525,80.418054 70.3003309,79.9787889 C70.42583,79.2912303 70.568159,78.5281989 70.3003309,77.8822966 C64.312663,63.4422543 54.0817418,54.9696562 47.4494843,40.1454353 C46.3762901,37.7466641 46.3734146,34.9816294 46.2468082,32.3584639 C45.8713746,24.5798372 46.2932648,16.777481 45.9461392,8.99754981 C45.8910962,7.76390203 45.3448011,6.60155862 45.0441321,5.40356302" id="Path-126"></path>
                <path d="M31.2133565,5.40356302 C32.7242692,14.7347654 28.779577,30.5614698 32.4594887,30.5614698 C37.2393671,30.5614698 32.746064,31.775846 40.8347656,30.5614705 C41.4736934,30.4655468 42.7899078,9.39898939 41.7367727,6.60155862" id="Path-127"></path>
                <path d="M36.0111417,38.0360739 C33.206659,34.3113162 29.8949861,37.8460883 35.1091345,40.731564 L36.0111417,38.0360739 Z" id="Path-128" stroke-linecap="round" stroke-linejoin="bevel"></path>
                <path d="M34.8084655,45.2240475 C25.2411376,44.1651482 33.1925556,56.0797702 34.5077965,48.2190365 L34.8084655,45.2240475 Z" id="Path-129" stroke-linecap="round" stroke-linejoin="bevel"></path>
                <path d="M42.6258604,49.4170321 C38.3363821,44.0569385 36.4432647,55.9642756 42.6470012,52.4330796 L42.6258604,49.4170321 Z" id="Path-130" stroke-linecap="round" stroke-linejoin="bevel"></path>
                <path d="M35.4309444,59.0220554 C42.8843235,59.0220554 32.424254,71.3475691 32.424254,59.6210532" id="Path-131" stroke-linecap="round" stroke-linejoin="bevel"></path>
                <path d="M24.6068591,65.0120334 C26.9851088,74.4880095 28.4925671,63.5145389 27.3128804,63.5145389 L24.6068591,65.0120334 Z" id="Path-132" stroke-linecap="round" stroke-linejoin="bevel"></path>
                <path d="M32.7249231,69.5045169 C29.75225,70.9850689 28.8265771,74.8896049 33.0255921,72.4995058 L32.7249231,69.5045169 Z" id="Path-133" stroke-linecap="round" stroke-linejoin="bevel"></path>
                <path d="M14.98545,70.4030136 C20.4984382,70.4030136 18.2495746,74.6130281 13.1814358,73.0985036 L14.98545,70.4030136 Z" id="Path-134" stroke-linecap="round" stroke-linejoin="bevel"></path>
                <path d="M42.3334128,67.1085257 C42.3334128,72.3120759 46.5488145,73.1285624 45.3401031,67.1085257 L42.3334128,67.1085257 Z" id="Path-135" stroke-linecap="round" stroke-linejoin="bevel"></path>
                <path d="M50.4514767,64.7125345 C50.6181434,65.1118663 50.7848101,65.5111982 50.9514767,65.9105301 L50.4514767,64.7125345 Z" id="Path-136"></path>
                <path d="M50.7521458,68.5919811 C46.701674,71.2817866 51.3006873,75.1970045 51.9548219,71.2874712 L50.7521458,68.5919811 Z" id="Path-137" stroke-linecap="round" stroke-linejoin="bevel"></path>
            </g>
            <path d="M70.9031647,94.6990497 C72.6002647,97.4144098 77.2040566,101.063058 76.0243678,95.1646136 L70.9031647,94.6990497 Z" id="Path-126" stroke-width="2"></path>
            <path d="M77.8866235,83.0599517 C73.2160734,90.5328318 87.8353703,93.2636859 82.5422627,85.8533352 L77.8866235,83.0599517 Z" id="Path-127" stroke-width="2"></path>
            <path d="M63.9197059,57.4539362 C63.1177718,59.1379978 55.8787803,70.7303004 59.2640667,74.6798012 C64.5111063,80.8013473 71.6907764,74.4692124 76.9554956,74.6798012 C78.166584,74.7282447 78.0736188,77.3975787 79.2833152,77.4731847 L84.8700823,79.8010043 C88.0024528,79.9967774 91.4378333,76.8801307 94.1813606,78.4043125 C96.8013652,79.8598706 95.2379717,84.7515371 97.4403081,86.7844631 C99.7123927,88.8817719 103.757285,87.7983643 106.286023,89.5778466 C108.223276,90.9410993 107.672646,95.2484816 110.010534,95.6301775 C197.72705,109.951241 100.096433,81.1192628 132.823166,99.8202528 C138.783061,103.225907 153.668574,97.7184819 157.963618,99.3546889 C160.953307,100.493618 158.659976,107.168078 161.688129,108.200403 C178.265793,113.85188 174.50191,100.507231 184.500761,109.597095 C186.31638,111.247657 186.237995,115.715719 188.690836,115.649426 C193.547215,115.518173 197.238946,110.992276 201.726626,109.131531 C203.639202,108.338512 205.761513,107.269276 207.778957,107.734839 C210.169857,108.286586 211.547468,111.0277 213.831288,111.924915 C216.017083,112.78362 218.7498,111.73753 220.814747,112.856043 C222.754144,113.90655 222.95084,118.780978 225.004822,117.977246 C231.154589,115.570815 247.646248,78.2180948 246.420762,71.8864177 C245.954498,69.4773878 243.115012,68.1229283 242.230687,65.8340867 C240.440065,61.1995357 240.885323,55.7633761 238.506176,51.4016052 C237.748338,50.0122363 235.427368,50.3353204 233.850536,50.4704774 C229.908458,50.8083698 225.808183,54.4468049 222.211438,52.798297 C217.207716,50.5049241 216.735841,41.9366011 211.503468,40.2280712 C207.338732,38.8681572 203.638074,44.2433784 199.398806,45.3492743 C196.391803,46.1337098 193.092844,46.6057109 190.087528,45.8148382 C186.921622,44.981705 184.263703,42.7386954 181.707377,40.6936351 C178.793978,38.3629154 177.408731,33.6983554 173.792791,32.7790484 C167.468694,31.1712273 160.524852,35.4619416 154.239106,33.7101763 C150.222268,32.5907297 149.405373,26.00119 145.393392,24.8644618 C70.3926134,3.6142413 150.004992,38.5830352 121.649632,20.6743866 C120.461477,19.9239732 118.837554,19.9332232 117.459557,20.2088226 C109.450502,21.8106336 101.882465,26.1335494 93.7157967,26.2611536 C75.0656287,26.5525625 99.6510425,14.517512 80.680007,20.2088226 C62.4313555,25.6834181 85.4885963,23.8568589 67.6442173,32.7790484 C64.7293261,34.236494 60.9188225,31.6347556 57.867375,32.7790484 C56.4888715,33.2959873 56.113612,35.5408388 56.4706832,36.9691237 C57.2788185,40.2016648 60.9876083,42.4856997 61.1263224,45.8148382 C61.3189816,50.4386582 52.0860915,47.4825774 59.2640667,54.6605526 L63.9197059,57.4539362 Z" id="Path-128" stroke-width="3"></path>
            <path d="M159.484034,161.475686 C163.306679,167.846762 166.83061,174.406873 170.95197,180.588913 C171.951547,182.088278 173.162847,183.605674 174.774615,184.411559 C175.344462,184.696482 174.358623,182.982788 174.774615,182.500236 L182.419906,171.987961 C187.569655,166.014253 192.976552,160.24807 198.666149,154.786057 C200.964156,152.57997 204.120604,151.364638 206.31144,149.052088 C209.90468,145.259225 212.682516,140.76969 215.868054,136.628491" id="Path-129" stroke-width="7"></path>
            <g id="Group" transform="translate(308.769469, 83.000000)" stroke-width="3">
                <path d="M74.9394048,7.03466897 C62.6736064,-2.16653888 48.6000739,-0.128136589 33.6705063,2.07346243 C30.14706,2.59304987 26.8930339,4.4583528 23.3532816,4.85173809 C20.8416826,5.13086104 18.3378252,3.93479559 15.8137713,4.05794505 C15.3706441,4.07956538 15.2566515,4.80653055 15.2185468,5.24863462 C14.922952,8.67822761 15.233406,12.1503465 14.8217305,15.5679442 C14.5684553,17.6705534 13.331159,19.604235 13.2344651,21.7198403 C12.2332629,43.6255643 10.9261341,45.5489336 16.607404,61.6079409 C18.3319944,66.4827683 32.266166,66.2794717 34.8609553,62.0048374 C35.5550983,60.8613119 34.2598664,57.4375947 35.4561798,58.0358722 C47.3926522,64.0053145 29.1697666,63.2146697 32.4800573,65.9738027 C40.2731075,72.4693236 46.7664087,55.5586419 45.3765881,50.6932865 C44.2491791,46.7465577 37.3402133,49.0899157 34.4641389,47.3196661 C34.295163,47.2156599 34.3842323,46.905964 34.4641389,46.7243213 L38.6307104,38.9848391 C38.9249096,38.3160694 38.2938154,37.2990759 38.8291186,36.8019082 C41.2810315,34.5246718 47.2502433,33.7534471 45.7734044,28.6655295 C45.4097225,27.4125941 44.2217154,26.5228137 43.7893227,25.291909 C43.3459539,24.0297582 42.9283835,22.6340682 43.1940982,21.3229438 C43.941969,17.6327026 45.3302967,14.0876762 46.7654452,10.6067377 C47.9832613,7.65293682 49.817163,4.98606629 51.1304249,2.07346243 C51.34963,1.58730074 51.262697,1.0150717 51.3288331,0.485876337" id="Path-130"></path>
                <path d="M44.3698216,29.062426 C42.0550597,26.9456446 40.2047043,24.1660943 37.4255358,22.7120816 C29.4938272,18.5623495 21.0067801,26.9541532 14.8070049,30.0546673 C14.3929277,30.2617478 14.5616406,29.0581917 14.8070049,28.6655295 C15.2785818,27.9108539 16.2493781,27.5855003 16.7910865,26.8794951 C18.4439093,24.7253818 19.4950789,22.1107342 21.3544743,20.1322542 C22.6610467,18.7420028 24.3730327,17.7320109 26.1162703,16.9570821 C27.4082421,16.3827563 28.8776618,16.3194517 30.2828418,16.163289 C31.2688151,16.0537143 32.3300875,15.8148898 33.2589643,16.163289 C34.5475426,16.6466035 35.6498949,17.5803197 36.6319031,18.5446681 C39.304838,21.1695346 41.6582434,24.1012195 44.1714135,26.8794951 L44.3698216,29.062426 Z" id="Path-131"></path>
                <path d="M16.195862,28.268633 C17.2539292,29.9618825 20.1462515,35.2802052 22.3465152,36.4050117 C29.3473898,39.9839596 41.7793332,38.0317435 44.1714135,29.6577708" id="Path-132"></path>
                <path d="M25.719454,25.291909 C19.5438822,32.0302579 27.3739653,40.086325 33.8541888,34.2220808 C40.2595819,28.425554 33.8691172,19.330166 26.7114948,23.3074264 L25.719454,25.291909 Z" id="Path-133"></path>
                <path d="M30.2828418,27.0779434 C22.4214443,32.9751831 33.7704575,34.7749465 32.2669235,29.2608743 C32.193095,28.990115 31.8701072,28.8639778 31.671699,28.6655295 L30.2828418,27.0779434 Z" id="Path-134"></path>
                <path d="M51.9093319,1.47811764 C54.5329591,10.5617392 56.3079019,31.2871526 52.7029646,39.5801839" id="Path-135"></path>
                <path d="M41.5921073,37.7941495 C56.6934854,40.1342725 68.8246778,44.0809349 83.059414,49.7010452" id="Path-136"></path>
                <path d="M74.2770386,6.7333845 C84.9893273,13.1620566 82.818338,19.0404169 84.7976834,31.5128128 C85.151038,33.739397 86.287261,35.7751061 86.8339372,37.962253 C88.5398292,44.7871999 86.962829,50.9856161 86.1551859,57.6500179 C85.4833828,63.1935142 90.5099359,68.150691 88.5308154,73.2644521 C87.6810414,75.4601454 85.5348973,76.9412123 84.4583077,79.0350039 C83.476656,80.944157 83.3297353,83.1995754 82.4220539,85.1449999 C80.6987628,88.8385129 77.5406595,90.653522 75.9739167,94.309994" id="Path-137"></path>
                <path d="M53.5636627,0.688879147 C60.3562498,6.7279545 62.3159639,13.3703256 67.0988872,20.8547985 C68.5347092,23.101619 70.7389916,24.7683372 72.3155884,26.9186763 C75.3449365,31.0504403 80.9733821,44.0004243 83.1719664,49.3409223" id="Path-138"></path>
                <path d="M59.3443315,2.38112413 C74.0530065,16.6841147 77.8393376,31.0593911 84.8638695,51.0331672" id="Path-139"></path>
                <path d="M67.3808711,3.93234869 C75.5497873,13.1686419 80.9709777,23.4598887 85.5688291,34.95684" id="Path-140"></path>
                <path d="M56.3835011,22.5470434 C73.1898787,22.5470434 80.0034294,35.3446039 64.9840084,44.2641873" id="Path-141"></path>
                <path d="M72.5975722,33.1235746 C66.1249902,37.9086237 61.553796,37.8458897 52.7177111,39.8925545" id="Path-142"></path>
                <path d="M59.2033396,24.098268 C60.9124611,24.7698443 63.494588,25.1773553 64.5610326,27.0596967 C65.9831067,29.5697463 66.9505217,36.1992946 62.5871457,37.0721462 C54.960363,38.597811 51.0140657,27.7110728 57.0884607,24.2392884 L59.2033396,24.098268 Z" id="Path-143"></path>
                <path d="M61.6002023,28.0468396 C54.0888493,24.5408332 57.2184307,40.7490296 62.8691296,29.880105 L61.6002023,28.0468396 Z" id="Path-144"></path>
                <path d="M83.876926,50.1870448 C70.8097657,62.5099999 71.1977014,77.9698414 74.9944349,94.7494959 C75.2077147,95.6920855 77.5335651,104.706456 80.3521279,106.736231 C82.9824008,108.63041 85.9918048,109.932694 88.8116433,111.530925" id="Path-145"></path>
                <path d="M41.3072789,38.3413299 C46.7770096,41.4414703 48.3222671,43.6335419 51.5996893,49.4819427 C63.7696304,71.1986117 61.6023456,73.86114 62.0330915,98.2750062 C62.2008684,107.784285 63.5000722,97.6695518 61.7511077,107.582354" id="Path-146"></path>
                <path d="M46.5239801,53.1484735 C53.3317528,64.616513 56.853569,74.2904422 52.4456408,87.8394955 C50.3647751,94.2356434 44.8512504,98.5828251 42.4352143,104.902966" id="Path-147"></path>
                <path d="M43.9861255,105.326027 C59.9303213,107.701174 60.9644562,108.963103 77.4012111,104.197864" id="Path-148"></path>
                <path d="M42.0122385,106.877252 C35.563691,111.392147 24.2641729,107.8843 19.453531,102.223578 C17.7323631,100.198265 17.6272856,92.089757 20.4404744,91.2239855 C20.8896648,91.0857451 21.4653767,91.4935518 21.8503936,91.2239855 L24.9522159,92.77521 C25.7851349,92.1920489 23.7008464,91.1533376 23.2603129,90.2368426 C22.519064,88.6947334 21.7773261,87.1170477 21.4274179,85.4421485 C21.1100525,83.9230218 21.1703801,82.3360649 21.2864259,80.7884748 C21.3147642,80.4105552 21.554519,80.0380794 21.8503936,79.8013319 C23.8576179,78.195228 27.6792114,81.425766 29.0409817,80.6474544 C29.8332732,80.1946249 27.6214739,79.4612619 26.7851109,79.0962298 C25.0143193,78.3233646 22.7753442,78.4944341 21.2864259,77.2629644 C20.1022497,76.2835438 19.6103089,74.5612456 19.453531,73.032352 C19.2221217,70.7756555 19.923504,68.5196987 20.1584906,66.2633721" id="Path-149"></path>
                <path d="M21.7094017,77.4039848 C26.2679289,75.6441977 30.4237689,72.7927441 35.5266101,74.5835765 C36.5946191,74.9583922 36.6548909,77.0238729 37.7824809,77.121944 C38.6001679,77.1930616 38.24968,75.5009887 38.7694243,74.8656174 C41.0676492,72.0561081 46.4767696,76.9558779 47.3699316,77.2629644 C49.4621407,77.9823066 54.555173,76.5739055 53.85556,78.6731686 C53.1064772,80.9208712 46.2050785,81.0650369 43.4221578,81.211536" id="Path-150"></path>
                <path d="M24.811224,83.3268422 C31.7909697,76.9803366 41.9528502,81.661804 49.4848104,84.1729647" id="Path-151"></path>
                <path d="M23.9652725,83.0448014 C30.9076574,86.4677954 42.722911,93.4729655 49.6258023,84.596026" id="Path-152"></path>
                <path d="M13.3908783,49.6229631 C5.72136168,48.8305786 -3.17043734,54.7910998 6.05324007,61.7507188 C10.327328,64.9756823 13.2195847,65.0530213 18.0375535,64.5711271" id="Path-153"></path>
                <path d="M11.4109331,57.6611267 C10.8469654,58.9303105 9.86908205,60.0879206 9.71903006,61.4686779 C9.19636606,66.2781585 19.0819054,67.1838029 16.6276343,64.0070454 C7.34025938,51.9856608 22.029031,73.9565722 12.5388685,59.3533717 L11.4109331,57.6611267 Z" id="Path-154"></path>
                <path d="M2.24645817,55.9688818 C-1.25762958,63.5626062 7.26342351,71.3243932 10.0010139,77.2629644 C12.8189154,83.3757521 18.257738,101.731513 14.9357312,108.851537" id="Path-155"></path>
                <path d="M0.272571255,112.659089 C9.23731579,112.293107 16.2937688,108.184335 24.9461577,106.31317" id="Path-156"></path>
            </g>
            <g id="Group" transform="translate(516.000000, 83.000000) rotate(6.000000) translate(-516.000000, -83.000000) translate(419.000000, 62.000000)" stroke-width="3">
                <path d="M12.0405922,30.1998044 C27.1547164,38.4702072 27.6893521,15.8350868 17.8850725,15.8350868 C8.64183117,15.8350868 7.61213189,16.5875284 1.81275163,22.8708668 C-2.94202557,28.0224301 5.51866388,37.9129186 10.8716961,37.8218995 C17.8207141,37.7037433 25.8296423,35.9527844 31.6196012,31.6655919 C33.5599996,30.228818 34.7041812,27.9001521 36.5874094,26.3887569 C41.0615618,22.7980011 46.4254269,20.3433766 50.6141621,16.4214018 C53.8186407,13.4210011 55.2344971,8.79644449 58.5042105,5.8677317 C60.8440527,3.7719133 66.7700515,-1.37630364 66.978707,1.76352666 C67.3132015,6.79697255 61.4326617,10.199423 59.0886586,14.6624568 C56.6498231,19.3060533 55.1077178,24.388427 52.6597302,29.0271744 C50.7127223,32.7166042 48.4513939,42.9083572 45.9385779,39.5808445 C41.8782538,34.2040957 45.8764925,26.0780453 45.3541299,19.3529768 C44.3126987,5.9452505 21.9113171,10.2206202 26.6517929,20.2324493 C28.0429601,23.1705781 29.5216879,26.2429014 31.9118252,28.4408594 C34.3531855,30.6859218 37.6678391,31.7470643 40.6785456,33.1313794 C45.2890707,35.2512871 50.8795676,36.6723302 54.9975224,33.1313794" id="Path-157"></path>
                <path d="M68.1921683,12.9633447 C70.3988065,3.34007079 91.0354166,-7.01085043 93.0792121,7.63432279 C94.348514,16.7297269 81.4290856,32.3629477 72.313914,24.5903017 C68.4149735,21.2656157 73.5381514,11.8748941 77.1430531,9.81437723 C88.8894228,3.10029886 106.758017,-3.5750008 113.84451,13.6900296 C117.510192,22.620838 97.9444967,22.2054676 95.4937816,22.6524756 C94.5142874,22.8311343 97.5059324,22.9223919 98.3912651,23.3791604 C100.356645,24.3931559 102.564161,25.2813044 103.944775,27.0125844 C104.981303,28.3123832 105.293762,30.1986765 105.15206,31.8571498 C104.971609,33.9691397 100.196322,38.676204 105.393517,40.3351393 C106.436707,40.6681237 107.743344,40.1274122 108.532457,39.3662262 C115.659558,32.4913537 113.462705,31.1852426 123.744245,25.5592148" id="Path-158"></path>
                <path d="M106.359345,6.18095317 C101.150511,16.4735506 82.0384871,53.3398556 67.9676888,33.794976" id="Path-159"></path>
                <path d="M170.278849,9.3741457 C167.652562,12.2861565 165.748839,16.0767672 162.399988,18.1101782 C159.509125,19.8655004 146.459539,18.9844562 149.130327,12.2861565 C151.344825,6.73222746 157.70315,3.0331202 163.229341,1.88611782 C170.508738,0.375224662 167.088265,2.79474659 174.010941,4.38212712 C180.963153,5.97628033 187.302703,5.59130956 193.915432,3.55012402" id="Path-160"></path>
                <path d="M181.060448,8.5421426 C177.743033,12.0088222 174.040678,15.1423007 171.108202,18.9421813 C167.376365,23.7778691 165.010955,29.5967814 161.155957,34.3342386 C154.601744,42.3887977 129.701514,46.8266524 127.567129,31.8382293 C125.07582,14.3433597 150.833584,11.7154161 152.033065,24.3502015 C152.71645,31.5486573 142.648799,40.7280537 135.860666,33.9182371" id="Path-161"></path>
            </g>
            <path d="M410.808939,95.2193769 C401.411134,98.3519785 415.504937,109.595019 415.504937,98.9761749 L410.808939,95.2193769 Z" id="Path-163" stroke-width="2"></path>
            <path d="M411.160814,63.8616247 C404.125995,66.6755524 405.90961,53.6384781 410.054382,50.584436 C412.578144,48.7248212 415.892102,48.1012242 418.352624,46.1587064 L421.118705,48.3715712 C424.534612,45.6748026 425.559354,40.692788 428.863732,37.8604635 C429.920798,36.9544069 438.751309,42.842339 438.821624,42.8394093 C441.734801,42.7180269 443.405548,39.1644066 446.013434,37.8604635 C450.454504,35.6399284 455.050552,33.6237846 459.843839,32.3283015 C476.063719,27.9445502 458.519522,34.3799803 470.354947,36.2008149 C479.429762,37.5969403 465.405017,22.8666064 481.419271,31.2218691 C484.420567,32.7877629 483.304752,38.6984549 486.398217,40.0733283 C488.427367,40.975173 489.417867,36.6925564 491.377162,35.6475987 C492.353426,35.1269246 493.842371,34.9442316 494.69646,35.6475987 C497.230896,37.7347812 497.624919,42.4906487 500.781838,43.3926255 C503.052516,44.0413908 504.155996,39.9260087 506.314,38.9668959 C507.662094,38.3677429 509.388932,38.3738628 510.739729,38.9668959 C517.086772,41.7534022 522.762565,45.8923717 528.995864,48.9247874 C529.659159,49.2474716 530.590275,49.3267826 531.208729,48.9247874 C534.396168,46.8529517 536.712976,43.5353217 540.060188,41.7329769 C541.691922,40.8543507 543.934751,40.3509615 545.59235,41.1797607 C549.456952,43.1120618 551.439281,48.1479871 555.550241,49.4780036 C558.443862,50.4141749 561.401789,46.7651535 564.401701,47.2651388 C566.459623,47.6081259 566.744721,51.8133807 568.82743,51.6908684 C571.170477,51.5530421 571.793756,47.9194944 573.806376,46.7119226 C577.367471,44.5752655 580.786021,50.581167 582.657835,51.1376522 C587.459705,52.5652352 593.113963,50.556946 597.594672,52.7973008 C601.799762,54.8998458 603.01254,60.8166537 606.999348,63.3084085 C608.260087,64.0963706 609.39532,61.2692544 610.871861,61.0955438 C619.066538,60.1314641 633.843978,72.656927 629.681212,82.1177592 C623.809062,95.463554 622.173901,80.9277218 620.276536,94.8417318 C618.888789,105.018545 617.832579,114.139434 609.765429,123.055758 C604.045817,129.377434 599.087451,121.071216 592.06251,124.16219 C559.560163,138.463223 605.043712,125.624286 573.806376,123.608974 C570.102988,123.370046 567.541154,128.957187 563.848484,128.58792 C560.734552,128.276527 560.22667,122.781541 557.20989,121.949325 C554.10535,121.092901 551.000847,124.561644 547.805215,124.16219 C544.694531,123.773355 542.626306,120.048394 539.506972,119.736461 C536.605736,119.446337 534.08204,122.99794 531.208729,122.502542 C528.082228,121.96349 526.574722,117.592584 523.463702,116.97038 C521.278793,116.533398 519.596775,119.94444 517.378324,119.736461 C513.25242,119.349657 509.858932,115.925453 505.760784,115.310731 C502.276701,114.788119 498.743769,116.868014 495.249676,116.417163 C487.548825,115.423505 478.778991,110.805199 470.908163,109.778569 C469.173434,109.5523 467.493949,112.220584 465.929217,111.438218 C462.07872,109.512969 460.64452,103.835237 456.524542,102.586759 C453.508843,101.67291 450.804203,106.260522 447.673083,105.906056 C432.065078,104.139112 402.985666,88.4486168 410.607598,69.3937867 L411.160814,63.8616247 Z" id="Path-163" stroke-width="2"></path>
            <path d="M402.335287,107.516001 C398.587977,111.263311 404.257299,115.580368 405.654584,111.388515 L402.335287,107.516001 Z" id="Path-164" stroke-width="2"></path>
            <path d="M465.031889,145.633149 C495.606623,167.714902 503.254625,172.18503 533.262855,185.522021 C533.715042,185.722993 533.96266,184.822216 534.312562,184.472314" id="Path-165" stroke-width="6"></path>
            <path d="M522.765783,144.583442 L455.584525,183.422607" id="Path-166" stroke-width="6"></path>
        </g>
    </g>
</svg>