<?xml version="1.0" encoding="UTF-8" standalone="no"?>
<svg width="394px" height="208px" viewBox="0 0 394 208" version="1.1" xmlns="http://www.w3.org/2000/svg" xmlns:xlink="http://www.w3.org/1999/xlink">
    <!-- Generator: Sketch 3.8.3 (29802) - http://www.bohemiancoding.com/sketch -->
    <title>Artboard 9</title>
    <desc>Created with Sketch.</desc>
    <defs>
        <rect id="path-1" x="24.1256831" y="119.528302" width="21.8196721" height="20.4716981"></rect>
        <mask id="mask-2" maskContentUnits="userSpaceOnUse" maskUnits="objectBoundingBox" x="0" y="0" width="21.8196721" height="20.4716981" fill="white">
            <use xlink:href="#path-1"></use>
        </mask>
    </defs>
    <g id="Page-1" stroke="none" stroke-width="1" fill="none" fill-rule="evenodd">
        <g id="Artboard-9">
            <g id="Group-3" transform="translate(44.000000, 40.000000)">
                <path d="M68.0238189,27.7039185 C65.4001546,29.0196994 68.0238215,28.918486 61.3404893,28.918486 C45.7618845,25.3918811 35.926509,32.7056057 32.805794,36.9773033 C14.259838,39.9274297 12.973574,54.0681456 12.4487095,54.4629788 C12.4487095,54.4629788 0.208377081,60.4155564 0.20837708,71.9486558 C0.208377081,87.5741475 7.99767947,95.0148602 28.7691506,95.0148602 C35.4051263,103.961158 37.2843536,103.961158 43.9608977,103.961158 C50.6374418,103.961158 55.4593916,99.1246941 59.8500957,96.6305906 C75.3455849,96.6305894 75.136656,128.637536 75.3455837,133.98123 C75.4386551,136.361692 73.1253389,136.483323 75.3455837,137.329556 C79.6071327,138.953819 83.7658066,138.833686 95.0042994,137.329556 C100.718709,123.95226 101.922925,123.881925 103.674536,119.968865 C104.46714,118.198206 115.193682,113.704123 119.185276,108.698796 C122.913999,104.023101 121.794948,99.1254354 122.184273,98.7628315 C123.848552,97.2127777 128.782537,92.7162574 128.46236,86.4318858 C128.20927,81.4643046 128.821427,78.6016983 124.79084,71.9486558 C128.821424,62.3326139 122.818036,49.9549523 110.35108,45.1184895 C108.82393,40.6540613 111.092925,40.1212659 103.674536,35.4455627 C96.2561477,30.7698595 88.0887488,33.5655827 86.9498485,32.4867169 C85.9123388,31.5038972 78.6244601,30.3138353 78.6244512,28.918486 C78.6244352,26.4270799 79.3360101,24.2904201 78.62445,23.4532267 C77.0753596,21.6306285 72.7917886,23.4532267 68.0238199,23.4532267 L68.0238189,27.7039185 Z" id="Path-167" fill="#000000"></path>
                <g id="Group-2" transform="translate(14.742857, 43.622340)" stroke="#FACC2E" stroke-width="6">
                    <path d="M0.000395530703,27.82022 C22.217566,34.1870902 35.1540163,26.5795748 39.3553592,4.74344877 C39.6230545,3.35212521 39.2380374,-0.919635491 39.3553592,0.492464593 C39.7070017,4.72487604 38.3581457,11.6400227 41.7772031,15.6745509 C54.1789232,30.3087274 88.1540579,17.5329551 95.8168642,33.5188256 C100.988573,44.3078588 80.8922872,42.2980383 72.9584436,54.540692 C65.0415884,66.757131 71.8077291,79.9482137 70.2338692,93.1031914" id="Path-168"></path>
                    <path d="M15.13692,10.2089999 C24.6106216,11.6708796 25.6847827,19.0237924 26.3379481,27.2129366" id="Path-169"></path>
                    <path d="M8.47684925,29.4173991 C6.05500531,33.5260379 4.65710431,34.0626188 6.05500533,41.5405323" id="Path-170"></path>
                    <path d="M56.6109971,24.1539834 C46.0638417,28.5100023 49.0445832,34.1416416 50.8591178,44.8016208" id="Path-171"></path>
                    <path d="M49.0640206,35.692369 C41.2995653,32.1524478 37.0501327,30.0355808 33.0193047,38.1215028" id="Path-172"></path>
                    <path d="M67.5017055,23.4179946 C63.8586053,14.9160265 66.0378485,11.1348404 77.1296651,9.28063984" id="Path-173"></path>
                    <path d="M92.9993084,10.9789334 C97.4553184,16.7891832 98.1592037,24.026516 91.7883864,28.2865119" id="Path-174"></path>
                    <path d="M78.8742857,39.6114542 C83.6768213,35.3296839 91.4237017,35.0965921 96.4326541,39.0041707" id="Path-175"></path>
                    <path d="M72.1109046,56.3400065 C82.6494311,54.3266259 82.884635,56.5198179 88.458351,66.0565417" id="Path-176"></path>
                </g>
                <g id="Group" transform="translate(2.211429, 0.000000)" stroke="#000000" stroke-width="3">
                    <path d="M72.0242979,22.796351 C72.0243007,15.7851368 72.0242979,6.42678334 59.4763358,4.01156113 C43.0635292,0.852436612 28.8680154,26.3444763 15.5804147,11.906246" id="Path-177"></path>
                    <path d="M20.3453691,0.671502131 C18.8450742,6.78399299 20.6556871,7.03320888 17.3676944,5.35871933" id="Path-178"></path>
                    <path d="M7.10396102,2.18971077 C9.95581915,7.55304025 9.71524726,5.03422371 9.22307445,9.47711222" id="Path-179"></path>
                    <path d="M0.443890245,14.9426633 C2.86573416,15.6511607 5.28757808,16.359658 7.709422,17.0681554" id="Path-180"></path>
                    <path d="M10.32,26.3392422 C11.7327423,24.2137501 13.1454846,22.088258 14.5582269,19.962766" id="Path-181"></path>
                </g>
            </g>
            <g id="Group" transform="translate(226.000000, 39.000000)" stroke="#000000">
                <path d="M17.7248183,13.4830207 C23.9702999,14.3363421 41.2559096,19.7102225 45.6229519,21.8910198 C46.9504202,22.5539259 61.8784116,26.7201186 70.2449496,33.6229846 C74.7746193,37.3602178 82.1190444,44.5543247 83.7535576,49.1678387 C84.3043544,50.7224965 85.1293506,59.3959697 86.0837584,60.7416882 C86.866928,61.8459601 90.248611,65.613211 98.4712437,65.613211 C106.693876,65.613211 109.017185,62.7164918 111.686187,60.7416886 C114.671787,60.7475884 112.888006,55.6410403 119.452306,58.0099733 C123.33263,59.4103096 117.465131,72.3713244 116.95037,74.6848598 C116.038661,78.7824321 114.042592,87.3008713 112.888002,91.3368948 C112.602427,92.33516 108.182143,89.9940064 107.144236,89.9364168 C104.613425,89.7959916 106.344853,84.6727809 103.441762,79.5905216 C100.815058,74.9921161 96.4192564,72.7082238 91.8275248,70.8490332 C91.0259667,70.5244826 88.1711552,71.6685477 83.7535576,71.6685477 C79.9844282,73.7889844 80.0722932,79.223982 71.5875861,82.5954072 C68.6806399,83.7504915 61.555836,88.0666037 45.6229529,87.2841204 C27.4299982,86.3906421 0.167613289,80.2602006 0.200775029,79.5905208 C2.11456094,40.9428602 17.7248183,13.4830207 17.7248183,13.4830207 Z" id="Path-182" stroke-width="4"></path>
                <path d="M36.8014989,11.9394725 C36.8014989,-0.535423245 48.6768689,6.90110722 46.1987936,12.5260707 C38.357156,30.3257421 22.2463727,2.20794073 38.2698262,0.207507623 C50.3987639,-1.30671828 52.2519687,11.3234222 57.6517465,18.6853522 C63.5025288,26.6621712 71.985983,41.5917704 77.6209977,27.777625 C81.1655905,19.0881143 71.8266371,25.352382 69.9856958,27.1910268" id="Path-183" stroke-width="4"></path>
                <path d="M15.3501549,92.0101325 C14.2949884,102.474535 27.3271015,94.4260053 24.4537841,89.6431169 C21.4234187,84.5988083 8.75862037,84.3369716 8.30218388,91.4029117 C7.98159551,96.3658325 11.3986238,106.309594 18.5804749,103.428176 C28.8643398,99.3022039 38.5149249,93.6956653 48.8280172,89.6431169 C50.5611548,88.9620773 52.5920303,88.9353342 54.4076609,89.3498178 C56.1594755,89.7497331 57.9837351,90.588044 59.1063082,91.9895099 C60.1148273,93.2485862 60.4340316,95.0771546 60.2809701,96.6822958 C59.7687722,102.053664 52.7196878,94.7847352 52.3520027,94.3359029" id="Path-184" stroke-width="4"></path>
                <path d="M26.6892038,110.496921 C22.256152,107.302939 13.4142734,106.24154 22.3981259,97.2688941 L22.5375104,97.6422317 C25.542093,94.8319782 25.3310969,101.943285 25.6284459,103.428176 C25.6976636,103.773832 26.5094423,104.367276 26.5094423,104.014774 C26.5094423,99.2152514 25.4628369,94.4397885 25.6284459,89.6431169 C25.865474,82.7778775 30.4322889,89.8059272 30.9144242,89.6431169 C31.9168737,89.3046039 31.2279951,86.0832254 32.089086,86.697523 L33.5574133,86.1109248 C37.4268622,88.8713689 36.5836631,89.6305142 40.8990498,89.6305142 C41.5557057,89.6305142 42.5795944,89.8596393 42.6610425,90.5104116 C43.1104448,94.1011445 42.0761294,97.7555125 42.3673771,101.362479 C42.5696804,103.867911 44.4072934,106.196765 44.1293698,108.694957 C43.968668,110.139469 41.670784,110.548514 41.1927153,111.921247 C40.8014916,113.044612 42.5061293,114.498106 41.7800462,115.440837 C40.2942607,117.369948 36.2727972,114.638783 35.0257406,114.56094 C32.9648021,114.432292 30.90778,115.403345 28.858766,115.147538 C28.2923906,115.076829 28.2714351,114.169874 27.9777696,113.681042 L26.6892038,110.496921 L26.6892038,110.496921 Z" id="Combined-Shape" stroke-width="3" fill="#FACC2E"></path>
                <path d="M27.7397624,115.734136 C22.9875588,114.439697 23.3472408,114.821359 24.8031078,119.547025" id="Path-187" stroke-width="3"></path>
                <path d="M39.7800462,115.734136 C44.8368656,115.015042 45.9826258,115.664192 42.7304663,119.840324" id="Path-188" stroke-width="3"></path>
                <use id="Rectangle-6" mask="url(#mask-2)" stroke-width="8" xlink:href="#path-1"></use>
                <path d="M30.9755297,90.3180953 L30.1516581,102.879203" id="Path-188" stroke-width="2"></path>
                <path d="M35.8734219,88.1891448 L33.7512509,102.879203" id="Path-189" stroke-width="2"></path>
                <path d="M38.96683,90.4881412 C38.6351282,95.5678898 38.1770306,98.5468171 38.1770306,102.897489" id="Path-190" stroke-width="2"></path>
            </g>
        </g>
    </g>
</svg>